# xmcd CD database file
#
# Track frame offsets:
#	150
#	18531
#	41311
#	61526
#	91076
#	120432
#	137935
#	161516
#	189398
#	204784
#	234499
#
# Disc length: 3512 seconds
#
# Revision: 0
# Processed by: cddbd v1.5.2PL0 Copyright (c) Steve Scherf et al.
# Submitted via: CDex 1.70beta2
#
DISCID=7d0db60b
DTITLE=Minako Yoshida and Kazumi Watanabe - Nowadays
DYEAR=2008
DGENRE=Jazz
TTITLE0=Light My Fire
TTITLE1=Sophisticated Lady
TTITLE2=Opus De Funk
TTITLE3=Eleanor Rigby
TTITLE4=Both Sides Now
TTITLE5=El Noi De La Mare
TTITLE6=Come Sunday
TTITLE7=I Wish You Love
TTITLE8=Mood Indigo
TTITLE9=Good Bye Port Pie Hat
TTITLE10=Lush Life
EXTD=YEAR: 2008
EXTT0=
EXTT1=
EXTT2=
EXTT3=
EXTT4=
EXTT5=
EXTT6=
EXTT7=
EXTT8=
EXTT9=
EXTT10=
PLAYORDER=
